<svg version="1.1"  xmlns="http://www.w3.org/2000/svg" xmlns:xlink="http://www.w3.org/1999/xlink" x="0px" y="0px" width="32" height="32" viewBox="0 0 32 32" style="fill: rgb(125, 209, 248);" xml:space="preserve" preserveAspectRatio="none" viewbox="0 0 32 32">
<path d="M28.5,5h-25C2.672,5,2,5.672,2,6.5v16C2,23.328,2.672,24,3.5,24H15v2h-5v1h12v-1h-5v-2h11.5c0.828,0,1.5-0.672,1.5-1.5v-16
	C30,5.672,29.328,5,28.5,5z M29,22.5c0,0.276-0.223,0.5-0.5,0.5h-25C3.225,23,3,22.776,3,22.5V21h26V22.5z M29,20H3V6.5
	C3,6.224,3.225,6,3.5,6h25C28.777,6,29,6.224,29,6.5V20z M20.171,9.876L23.74,13l-3.569,3.124l0.658,0.753L25.26,13l-4.431-3.876
	L20.171,9.876z M11.171,9.124L6.741,13l4.43,3.876l0.658-0.753L8.259,13l3.57-3.124L11.171,9.124z M14.066,16.252l0.868,0.496l4-7
	l-0.869-0.496L14.066,16.252z" style="fill: rgb(125, 209, 248);"></path>
</svg>