<svg width="40" height="40" viewBox="0 0 40 40" fill="none" xmlns="http://www.w3.org/2000/svg">
<path d="M22.0235 20L32.2774 7.77734C32.4493 7.57422 32.3048 7.26562 32.0391 7.26562H28.9219C28.7384 7.26562 28.5626 7.34766 28.4415 7.48828L19.9844 17.5703L11.5274 7.48828C11.4102 7.34766 11.2344 7.26562 11.0469 7.26562H7.92976C7.66413 7.26562 7.5196 7.57422 7.69148 7.77734L17.9454 20L7.69148 32.2227C7.65297 32.2679 7.62827 32.3233 7.62031 32.3822C7.61234 32.4411 7.62144 32.501 7.64653 32.5549C7.67162 32.6088 7.71164 32.6543 7.76184 32.6862C7.81205 32.718 7.87032 32.7347 7.92976 32.7344H11.0469C11.2305 32.7344 11.4063 32.6523 11.5274 32.5117L19.9844 22.4297L28.4415 32.5117C28.5587 32.6523 28.7344 32.7344 28.9219 32.7344H32.0391C32.3048 32.7344 32.4493 32.4258 32.2774 32.2227L22.0235 20Z" fill="#333333"/>
</svg>
