<svg xmlns="http://www.w3.org/2000/svg" xmlns:xlink="http://www.w3.org/1999/xlink" version="1.1"  x="0px" y="0px" width="32" height="32" viewBox="0 0 40 40" enable-background="new 0 0 40 40" xml:space="preserve" preserveAspectRatio="none" style="fill: rgb(72, 177, 224);" viewbox="0 0 32 32">
<g id="55152593_Shape_5_xA0_Clipping_Path_1_">
	<g>
		<path d="M33,8H7C6.448,8,6,8.447,6,9v2c0,0.553,0.448,1,1,1h26c0.553,0,1-0.447,1-1V9C34,8.447,33.553,8,33,8z M33,18H7    c-0.552,0-1,0.447-1,1v2c0,0.553,0.448,1,1,1h26c0.553,0,1-0.447,1-1v-2C34,18.447,33.553,18,33,18z M33,28H7    c-0.552,0-1,0.447-1,1v2c0,0.553,0.448,1,1,1h26c0.553,0,1-0.447,1-1v-2C34,28.447,33.553,28,33,28z" style="fill: rgb(72, 177, 224);"></path>
	</g>
</g>
</svg>