<svg xmlns="http://www.w3.org/2000/svg" xmlns:xlink="http://www.w3.org/1999/xlink" version="1.1"  x="0px" y="0px" viewBox="0 0 38 38" style="fill: rgb(125, 209, 248);" xml:space="preserve" preserveAspectRatio="none" width="32" height="32" viewbox="0 0 32 32">

<path class="st0" d="M35.1,2.9c-1.1-1.1-2.8-1.2-4-0.2C30,3.5,20.2,11.1,16.6,14.8c-1.9,1.9-3.3,3.8-4.3,5.3l1.5,1.5  c0.9-1.5,2.4-3.5,4.2-5.4c3.6-3.6,13.3-11.1,14.4-12c0.4-0.3,1-0.3,1.3,0.1c0.4,0.4,0.4,0.9,0,1.4C32.9,6.8,25.4,16.4,21.8,20  c-2.8,2.8-5.9,4.6-7.1,5.3l-3.1-3.1L4,27.5V28c0,3-0.6,5.2-1.7,6.3l1.4,1.4C4.8,34.6,7,34,10,34h0.5l4.6-6.7c1-0.5,4.6-2.4,8.1-5.9  c3.6-3.6,10.7-12.7,12.1-14.6C36.3,5.7,36.2,4,35.1,2.9z M9.5,32c-1.5,0-2.9,0.2-4,0.5c0.3-1.1,0.5-2.5,0.5-4l5.4-3.7l1.8,1.8  L9.5,32z" style="fill: rgb(125, 209, 248);"></path>
</svg>