<svg xmlns="http://www.w3.org/2000/svg" xmlns:xlink="http://www.w3.org/1999/xlink" version="1.1"  x="0px" y="0px" width="32" height="32" viewBox="0 0 32 32" style="fill: rgb(117, 162, 216);" xml:space="preserve" preserveAspectRatio="none" viewbox="0 0 32 32">
<path d="M27.906,11.644l-0.354-0.354l-2.328,2.328h-2.121v-2.121l2.328-2.328l-0.354-0.354C24.132,7.868,23.145,7.64,22.28,7.75l0,0  C20.41,4.89,17.18,3,13.5,3C7.7,3,3,7.7,3,13.5c0,3.68,1.89,6.91,4.75,8.78c0-0.002,0.001-0.004,0.001-0.006  c-0.112,0.866,0.115,1.854,1.063,2.804l0.354,0.354l2.329-2.329h2.121v2.121l-2.329,2.329l0.354,0.354  c1.958,1.957,4.093,0.855,4.951,0c2.943-2.945,2.223-5.098,1.713-5.956l3.645-3.646c0.859,0.51,3.012,1.232,5.955-1.713  C28.764,15.737,29.865,13.601,27.906,11.644z M21.25,8l0.019,0.038c-0.476,0.215-0.871,0.508-1.14,0.777  c-0.29,0.29-0.535,0.57-0.758,0.844c0.051-0.064,0.094-0.124,0.148-0.189C19.38,8.94,19.22,8.45,19.03,8H21.25z M21.795,7.848  c-0.038,0.011-0.075,0.023-0.112,0.035C21.72,7.871,21.757,7.859,21.795,7.848z M19.117,9.983c-0.048,0.064-0.092,0.128-0.136,0.192  C19.026,10.111,19.068,10.048,19.117,9.983z M20.43,7h-1.88c-0.6-1.12-1.34-1.93-2.05-2.51C18.02,4.99,19.36,5.86,20.43,7z M14,4.17  c0.8,0.29,2.26,1.04,3.4,2.83H14V4.17z M14,8h3.94c0.329,0.72,0.609,1.56,0.79,2.54c0.023-0.037,0.053-0.076,0.077-0.113  c-0.642,1.004-0.854,1.877-0.856,2.592c0-0.007-0.001-0.012-0.001-0.019H14V8z M14,14h4.08c-0.006-0.022-0.009-0.049-0.015-0.072  c0.093,0.351,0.228,0.635,0.351,0.842l-3.646,3.646c-0.205-0.122-0.486-0.255-0.832-0.348c0.02,0.005,0.043,0.007,0.063,0.013V14z   M17.983,13.509c0.002,0.013,0.003,0.026,0.005,0.039C17.986,13.535,17.985,13.522,17.983,13.509z M9.06,19  c-0.58-1.25-1-2.88-1.05-5H13v3.95c0.003,0,0.006,0.001,0.01,0.001c-0.82,0.005-1.849,0.289-3.043,1.177  c0.054-0.04,0.11-0.09,0.163-0.128H9.06z M9.706,19.332c-0.1,0.08-0.199,0.158-0.3,0.246C9.507,19.49,9.606,19.412,9.706,19.332z   M8.974,19.979c-0.054,0.051-0.105,0.096-0.16,0.149c-0.023,0.023-0.048,0.052-0.072,0.077L8.81,20.13  C8.866,20.074,8.919,20.031,8.974,19.979z M8.01,13c0.05-2.12,0.46-3.75,1.03-5H13v5H8.01z M13.541,17.986  c-0.006-0.001-0.013-0.001-0.019-0.002C13.528,17.985,13.534,17.985,13.541,17.986z M13,7H9.57c1.14-1.82,2.62-2.56,3.43-2.85V7z   M10.5,4.49C9.79,5.08,9.05,5.89,8.44,7H6.57C7.64,5.87,8.99,4.99,10.5,4.49z M5.75,8h2.21c-0.53,1.3-0.9,2.94-0.95,5h-3  C4.11,11.15,4.74,9.43,5.75,8z M5.75,19c-1.01-1.43-1.64-3.15-1.74-5h3c0.05,2.05,0.42,3.69,0.96,5H5.75z M6.57,20h1.88  c0.06,0.11,0.119,0.219,0.189,0.319c-0.225,0.264-0.451,0.606-0.622,1.002c0.008-0.02,0.014-0.042,0.023-0.062  C7.51,20.9,7.01,20.47,6.57,20z M7.889,21.662c-0.015,0.046-0.029,0.092-0.042,0.14C7.86,21.754,7.875,21.709,7.889,21.662z   M27.199,15.887c-3.109,3.106-4.879,1.479-4.949,1.413l-0.354-0.354l-4.596,4.596l-0.342,0.351l0.338,0.354  c0.07,0.073,1.697,1.845-1.411,4.953c-0.068,0.067-1.548,1.513-3.157,0.328l1.889-1.889v-3.535l-3.536-0.001l-1.889,1.89  c-1.158-1.563,0.164-2.989,0.328-3.157c3.109-3.108,4.881-1.48,4.95-1.414l0.354,0.354l4.596-4.596l0.342-0.35l-0.338-0.354  c-0.07-0.074-1.699-1.846,1.41-4.953c0.066-0.068,1.547-1.514,3.156-0.329l-1.889,1.889v3.536h3.535l1.891-1.89  C28.686,14.292,27.365,15.718,27.199,15.887z" style="fill: rgb(117, 162, 216);"></path>
</svg>